<svg xmlns="http://www.w3.org/2000/svg" width="345.831" height="409.036" viewBox="0 0 345.831 409.036">
  <g id="Group_4" data-name="Group 4" transform="translate(-440.159 -198.876)">
    <g id="noun_crescent_moon_1438330" data-name="noun_crescent moon_1438330" transform="translate(432.573 159.978)">
      <g id="Group_1" data-name="Group 1" transform="translate(9.109 47)">
        <path id="Path_1" data-name="Path 1" d="M78.523,58.837A162.513,162.513,0,0,1,97.652,47C34.224,105.276,27.177,198.608,84.564,264.169c57.387,66.016,159.073,81.5,236.6,39.154-5.537,5.008-11.075,9.561-17.115,14.114-79.033,56-193.3,43.707-255.725-27.317C-14.1,218.641-.51,115.292,78.523,58.837Z" transform="translate(-9.109 -47)" fill="#f58840" stroke="#000" stroke-linecap="round" stroke-linejoin="round" stroke-width="3" fill-rule="evenodd"/>
      </g>
    </g>
    <text id="Fat" transform="translate(451.331 533.796) rotate(17)" font-size="67" font-family="SegoeScript-Bold, Segoe Script" font-weight="700"><tspan x="0" y="0">Fat</tspan></text>
    <text id="_2_" data-name="2 " transform="translate(596.469 587.069) rotate(-7)" fill="#f58840" font-size="85" font-family="SegoeUI-BoldItalic, Segoe UI" font-weight="700" font-style="italic"><tspan x="0" y="0">2 </tspan></text>
    <text id="Fit" transform="translate(675.93 573.559) rotate(-17)" font-size="67" font-family="SegoeScript-Bold, Segoe Script" font-weight="700"><tspan x="0" y="0">Fit</tspan></text>
    <g id="noun_Muscle_2820608" transform="matrix(0.848, -0.53, 0.53, 0.848, 443.02, 303.404)">
      <g id="Group_3" data-name="Group 3" transform="translate(-0.105 5.83)">
        <g id="Group_2" data-name="Group 2">
          <path id="Path_2" data-name="Path 2" d="M147.208,139.379a3.816,3.816,0,0,1-1.347,5.083,3.5,3.5,0,0,1-4.872-1.405c-18.206-33.51-49.24-41.076-84.184-20.589a3.465,3.465,0,0,1-4.293-.628c-12.889-13.592-27.358-19.609-43.658-18.274a3.625,3.625,0,0,1-3.843-3.426A3.683,3.683,0,0,1,8.3,96.131c17.636-1.444,33.493,4.758,47.367,18.49C93.021,93.9,127.408,102.934,147.208,139.379ZM136,161.032a3.477,3.477,0,0,1,5.007.725,3.836,3.836,0,0,1-.7,5.223c-31.929,25.185-63.238,25.443-92.981-.366a3.841,3.841,0,0,1-.462-5.251,3.474,3.474,0,0,1,5.034-.482C79.023,184.41,106.655,184.182,136,161.032ZM100.226,52.621a3.842,3.842,0,0,1,.328-5.262,3.472,3.472,0,0,1,5.044.342c14.5,17.227,18.48,38.115,16.156,66.244a3.622,3.622,0,0,1-3.868,3.395,3.686,3.686,0,0,1-3.254-4.035C116.805,87,113.186,68.02,100.226,52.621ZM103.207,38a3.579,3.579,0,0,1,4.235-2.879,3.73,3.73,0,0,1,2.76,4.418,48.771,48.771,0,0,1-4.184,12.47l-1.639,1.555L63.946,72.543c-5.01,2.108-8.129-.278-11.5-5.8l-8.673-2.44c-4.338-1.5-6.765-6.329-6.185-11.726L43.649,18.3c1.21-6.587,6.41-12.583,13.675-13.3l47.787.923c6.24.207,12.51,3.311,18.309,8.606,40.176,37.6,78.063,93.181,86.714,129.728,3.372,15.105,1.18,32.072-5.826,46.89a3.645,3.645,0,0,1-1.8,1.78c-62.925,28-114,33.238-156.1,15.053l-11.647,6.309a3.5,3.5,0,0,1-4.82-1.591,3.809,3.809,0,0,1,1.525-5.028L44.6,200.554a3.441,3.441,0,0,1,3.058-.117c40.067,17.958,89.312,13.317,150.807-13.823,5.843-13.014,7.6-27.7,4.718-40.618-8.241-34.811-45.332-89.227-84.5-125.886-4.621-4.219-9.407-6.588-13.748-6.732l-47.324-.939c-3.385.346-6.278,3.683-6.932,7.241L44.656,53.666c-.2,1.868.5,3.265,1.169,3.5l9.85,2.766a3.6,3.6,0,0,1,2.14,1.69c1.915,3.348,2.892,4.243,3.327,4.062l39.175-18.4A46.015,46.015,0,0,0,103.207,38Z" transform="translate(-5 -5)"/>
        </g>
      </g>
    </g>
  </g>
</svg>
